<mxfile host="Electron" modified="2023-09-23T12:41:27.567Z" agent="Mozilla/5.0 (Windows NT 10.0; Win64; x64) AppleWebKit/537.36 (KHTML, like Gecko) draw.io/21.7.5 Chrome/114.0.5735.289 Electron/25.8.1 Safari/537.36" etag="y9dh9dCY1mAL0Ucw3vsf" version="21.7.5" type="device">
  <diagram name="Страница — 1" id="wS0a-E_ivv_yOe_8BlFn">
    <mxGraphModel dx="1674" dy="844" grid="1" gridSize="10" guides="1" tooltips="1" connect="1" arrows="1" fold="1" page="1" pageScale="1" pageWidth="827" pageHeight="1169" math="0" shadow="0">
      <root>
        <mxCell id="0" />
        <mxCell id="1" parent="0" />
        <mxCell id="2eg3K3dL9aRTkdR5wC7p-9" style="edgeStyle=orthogonalEdgeStyle;rounded=0;orthogonalLoop=1;jettySize=auto;html=1;exitX=1;exitY=0.3333333333333333;exitDx=0;exitDy=0;exitPerimeter=0;" edge="1" parent="1" source="iGe3nFgzR7R-XXRQcmDe-5" target="2eg3K3dL9aRTkdR5wC7p-2">
          <mxGeometry relative="1" as="geometry">
            <Array as="points">
              <mxPoint x="190" y="440" />
            </Array>
          </mxGeometry>
        </mxCell>
        <mxCell id="iGe3nFgzR7R-XXRQcmDe-5" value="Користувач" style="shape=umlActor;verticalLabelPosition=bottom;verticalAlign=top;html=1;outlineConnect=0;" parent="1" vertex="1">
          <mxGeometry x="80" y="420" width="30" height="60" as="geometry" />
        </mxCell>
        <mxCell id="iGe3nFgzR7R-XXRQcmDe-6" value="підтримувати зацікавленість в танцях" style="ellipse;whiteSpace=wrap;html=1;fontFamily=Times New Roman;" parent="1" vertex="1">
          <mxGeometry x="190" y="330" width="190" height="40" as="geometry" />
        </mxCell>
        <mxCell id="iGe3nFgzR7R-XXRQcmDe-7" value="підтримувати фінансову стабільність" style="ellipse;whiteSpace=wrap;html=1;fontFamily=Times New Roman;" parent="1" vertex="1">
          <mxGeometry x="260" y="480" width="192.5" height="50" as="geometry" />
        </mxCell>
        <mxCell id="iGe3nFgzR7R-XXRQcmDe-8" value="контролювати стан свого здоров&#39;я" style="ellipse;whiteSpace=wrap;html=1;fontFamily=Times New Roman;" parent="1" vertex="1">
          <mxGeometry x="260" y="580" width="195" height="50" as="geometry" />
        </mxCell>
        <mxCell id="iGe3nFgzR7R-XXRQcmDe-9" value="контролювати стан повітря навколишнього середовища" style="ellipse;whiteSpace=wrap;html=1;fontFamily=Times New Roman;" parent="1" vertex="1">
          <mxGeometry x="560" y="510" width="190" height="40" as="geometry" />
        </mxCell>
        <mxCell id="iGe3nFgzR7R-XXRQcmDe-11" value="" style="endArrow=classic;html=1;rounded=0;exitX=0;exitY=0.5;exitDx=0;exitDy=0;dashed=1;entryX=0.959;entryY=0.18;entryDx=0;entryDy=0;entryPerimeter=0;" parent="1" source="iGe3nFgzR7R-XXRQcmDe-9" target="iGe3nFgzR7R-XXRQcmDe-8" edge="1">
          <mxGeometry width="50" height="50" relative="1" as="geometry">
            <mxPoint x="370" y="520" as="sourcePoint" />
            <mxPoint x="480" y="540" as="targetPoint" />
          </mxGeometry>
        </mxCell>
        <mxCell id="iGe3nFgzR7R-XXRQcmDe-12" value="include" style="text;html=1;align=center;verticalAlign=middle;resizable=0;points=[];autosize=1;strokeColor=none;fillColor=none;rotation=-30;" parent="1" vertex="1">
          <mxGeometry x="455" y="540" width="60" height="30" as="geometry" />
        </mxCell>
        <mxCell id="iXEXV5dfRXbn2MsEbvl3-5" style="edgeStyle=orthogonalEdgeStyle;rounded=0;orthogonalLoop=1;jettySize=auto;html=1;exitX=0;exitY=0.3333333333333333;exitDx=0;exitDy=0;exitPerimeter=0;entryX=1;entryY=0.5;entryDx=0;entryDy=0;" parent="1" source="iGe3nFgzR7R-XXRQcmDe-13" target="iXEXV5dfRXbn2MsEbvl3-4" edge="1">
          <mxGeometry relative="1" as="geometry">
            <Array as="points">
              <mxPoint x="1050" y="190" />
            </Array>
          </mxGeometry>
        </mxCell>
        <mxCell id="iXEXV5dfRXbn2MsEbvl3-7" style="edgeStyle=orthogonalEdgeStyle;rounded=0;orthogonalLoop=1;jettySize=auto;html=1;exitX=0.5;exitY=0.5;exitDx=0;exitDy=0;exitPerimeter=0;entryX=1;entryY=0.5;entryDx=0;entryDy=0;" parent="1" source="iGe3nFgzR7R-XXRQcmDe-13" target="M6Eo8TPsQsGoYirGPoDh-15" edge="1">
          <mxGeometry relative="1" as="geometry">
            <Array as="points">
              <mxPoint x="1065" y="270" />
            </Array>
          </mxGeometry>
        </mxCell>
        <mxCell id="iGe3nFgzR7R-XXRQcmDe-13" value="хореограф" style="shape=umlActor;verticalLabelPosition=bottom;verticalAlign=top;html=1;outlineConnect=0;" parent="1" vertex="1">
          <mxGeometry x="1190" y="240" width="30" height="60" as="geometry" />
        </mxCell>
        <mxCell id="iGe3nFgzR7R-XXRQcmDe-17" value="надіслати запит на поради щодо танців" style="ellipse;whiteSpace=wrap;html=1;fontFamily=Times New Roman;" parent="1" vertex="1">
          <mxGeometry x="300" y="250" width="190" height="40" as="geometry" />
        </mxCell>
        <mxCell id="iGe3nFgzR7R-XXRQcmDe-23" value="надіслати запит на поради щодо&amp;nbsp; здоров&#39;я" style="ellipse;whiteSpace=wrap;html=1;fontFamily=Times New Roman;" parent="1" vertex="1">
          <mxGeometry x="455" y="650" width="190" height="40" as="geometry" />
        </mxCell>
        <mxCell id="iGe3nFgzR7R-XXRQcmDe-24" value="include" style="text;html=1;align=center;verticalAlign=middle;resizable=0;points=[];autosize=1;strokeColor=none;fillColor=none;rotation=0;" parent="1" vertex="1">
          <mxGeometry x="490" y="490" width="60" height="30" as="geometry" />
        </mxCell>
        <mxCell id="iGe3nFgzR7R-XXRQcmDe-27" value="" style="endArrow=classic;html=1;rounded=0;exitX=0;exitY=0;exitDx=0;exitDy=0;entryX=0.988;entryY=0.64;entryDx=0;entryDy=0;entryPerimeter=0;dashed=1;" parent="1" source="iGe3nFgzR7R-XXRQcmDe-9" target="iGe3nFgzR7R-XXRQcmDe-7" edge="1">
          <mxGeometry width="50" height="50" relative="1" as="geometry">
            <mxPoint x="450" y="520" as="sourcePoint" />
            <mxPoint x="500" y="470" as="targetPoint" />
            <Array as="points" />
          </mxGeometry>
        </mxCell>
        <mxCell id="iGe3nFgzR7R-XXRQcmDe-28" value="include" style="text;html=1;align=center;verticalAlign=middle;resizable=0;points=[];autosize=1;strokeColor=none;fillColor=none;rotation=0;" parent="1" vertex="1">
          <mxGeometry x="327.5" y="555" width="60" height="30" as="geometry" />
        </mxCell>
        <mxCell id="iGe3nFgzR7R-XXRQcmDe-31" value="" style="endArrow=block;html=1;rounded=0;endFill=0;" parent="1" source="iGe3nFgzR7R-XXRQcmDe-13" target="iGe3nFgzR7R-XXRQcmDe-5" edge="1">
          <mxGeometry width="50" height="50" relative="1" as="geometry">
            <mxPoint x="450" y="500" as="sourcePoint" />
            <mxPoint x="30" y="420" as="targetPoint" />
            <Array as="points">
              <mxPoint x="1200" y="820" />
              <mxPoint x="1070" y="820" />
              <mxPoint x="810" y="820" />
              <mxPoint x="480" y="820" />
              <mxPoint x="310" y="820" />
              <mxPoint x="190" y="820" />
              <mxPoint x="40" y="820" />
              <mxPoint x="40" y="590" />
              <mxPoint x="40" y="450" />
            </Array>
          </mxGeometry>
        </mxCell>
        <mxCell id="M6Eo8TPsQsGoYirGPoDh-3" value="" style="endArrow=classic;html=1;rounded=0;exitX=0;exitY=0.5;exitDx=0;exitDy=0;entryX=0.374;entryY=0.05;entryDx=0;entryDy=0;dashed=1;entryPerimeter=0;" parent="1" source="iGe3nFgzR7R-XXRQcmDe-17" target="iGe3nFgzR7R-XXRQcmDe-6" edge="1">
          <mxGeometry width="50" height="50" relative="1" as="geometry">
            <mxPoint x="550" y="517" as="sourcePoint" />
            <mxPoint x="492" y="551" as="targetPoint" />
          </mxGeometry>
        </mxCell>
        <mxCell id="M6Eo8TPsQsGoYirGPoDh-4" value="include" style="text;html=1;align=center;verticalAlign=middle;resizable=0;points=[];autosize=1;strokeColor=none;fillColor=none;rotation=-50;" parent="1" vertex="1">
          <mxGeometry x="240" y="270" width="60" height="30" as="geometry" />
        </mxCell>
        <mxCell id="M6Eo8TPsQsGoYirGPoDh-12" style="edgeStyle=orthogonalEdgeStyle;rounded=0;orthogonalLoop=1;jettySize=auto;html=1;endArrow=block;endFill=0;" parent="1" source="M6Eo8TPsQsGoYirGPoDh-6" target="iGe3nFgzR7R-XXRQcmDe-5" edge="1">
          <mxGeometry relative="1" as="geometry">
            <Array as="points">
              <mxPoint x="1160" y="760" />
              <mxPoint x="175" y="760" />
            </Array>
          </mxGeometry>
        </mxCell>
        <mxCell id="iXEXV5dfRXbn2MsEbvl3-2" style="edgeStyle=orthogonalEdgeStyle;rounded=0;orthogonalLoop=1;jettySize=auto;html=1;exitX=0;exitY=1;exitDx=0;exitDy=0;exitPerimeter=0;entryX=1;entryY=0.5;entryDx=0;entryDy=0;" parent="1" source="M6Eo8TPsQsGoYirGPoDh-6" target="2eg3K3dL9aRTkdR5wC7p-1" edge="1">
          <mxGeometry relative="1" as="geometry">
            <Array as="points">
              <mxPoint x="1140" y="720" />
            </Array>
            <mxPoint x="450" y="690" as="targetPoint" />
          </mxGeometry>
        </mxCell>
        <mxCell id="2eg3K3dL9aRTkdR5wC7p-24" style="edgeStyle=orthogonalEdgeStyle;rounded=0;orthogonalLoop=1;jettySize=auto;html=1;exitX=0;exitY=0.3333333333333333;exitDx=0;exitDy=0;exitPerimeter=0;entryX=0.5;entryY=0;entryDx=0;entryDy=0;" edge="1" parent="1" source="M6Eo8TPsQsGoYirGPoDh-6" target="M6Eo8TPsQsGoYirGPoDh-14">
          <mxGeometry relative="1" as="geometry" />
        </mxCell>
        <mxCell id="M6Eo8TPsQsGoYirGPoDh-6" value="медичний консультант" style="shape=umlActor;verticalLabelPosition=bottom;verticalAlign=top;html=1;outlineConnect=0;" parent="1" vertex="1">
          <mxGeometry x="1140" y="580" width="30" height="60" as="geometry" />
        </mxCell>
        <mxCell id="M6Eo8TPsQsGoYirGPoDh-7" value="" style="endArrow=classic;html=1;rounded=0;exitX=0;exitY=0.5;exitDx=0;exitDy=0;entryX=0.563;entryY=1.007;entryDx=0;entryDy=0;entryPerimeter=0;dashed=1;" parent="1" source="iGe3nFgzR7R-XXRQcmDe-23" target="iGe3nFgzR7R-XXRQcmDe-8" edge="1">
          <mxGeometry width="50" height="50" relative="1" as="geometry">
            <mxPoint x="582" y="479" as="sourcePoint" />
            <mxPoint x="489" y="492" as="targetPoint" />
            <Array as="points" />
          </mxGeometry>
        </mxCell>
        <mxCell id="M6Eo8TPsQsGoYirGPoDh-14" value="отримати запит на пораду щодо&amp;nbsp;&lt;br&gt;здоров&#39;я&amp;nbsp;" style="ellipse;whiteSpace=wrap;html=1;" parent="1" vertex="1">
          <mxGeometry x="810" y="650" width="190" height="40" as="geometry" />
        </mxCell>
        <mxCell id="M6Eo8TPsQsGoYirGPoDh-15" value="отримати запит на пораду щодо танців&amp;nbsp;" style="ellipse;whiteSpace=wrap;html=1;" parent="1" vertex="1">
          <mxGeometry x="560" y="250" width="190" height="40" as="geometry" />
        </mxCell>
        <mxCell id="M6Eo8TPsQsGoYirGPoDh-18" value="extend" style="text;html=1;align=center;verticalAlign=middle;resizable=0;points=[];autosize=1;strokeColor=none;fillColor=none;rotation=0;" parent="1" vertex="1">
          <mxGeometry x="500" y="240" width="60" height="30" as="geometry" />
        </mxCell>
        <mxCell id="M6Eo8TPsQsGoYirGPoDh-22" value="extend" style="text;html=1;align=center;verticalAlign=middle;resizable=0;points=[];autosize=1;strokeColor=none;fillColor=none;rotation=0;" parent="1" vertex="1">
          <mxGeometry x="690" y="640" width="60" height="30" as="geometry" />
        </mxCell>
        <mxCell id="M6Eo8TPsQsGoYirGPoDh-24" value="" style="endArrow=classic;html=1;rounded=0;exitX=0;exitY=0.5;exitDx=0;exitDy=0;entryX=1;entryY=0.5;entryDx=0;entryDy=0;dashed=1;" parent="1" source="M6Eo8TPsQsGoYirGPoDh-15" target="iGe3nFgzR7R-XXRQcmDe-17" edge="1">
          <mxGeometry width="50" height="50" relative="1" as="geometry">
            <mxPoint x="500" y="345" as="sourcePoint" />
            <mxPoint x="550" y="360" as="targetPoint" />
            <Array as="points" />
          </mxGeometry>
        </mxCell>
        <mxCell id="M6Eo8TPsQsGoYirGPoDh-25" value="" style="endArrow=classic;html=1;rounded=0;exitX=0;exitY=0.5;exitDx=0;exitDy=0;entryX=1;entryY=0.5;entryDx=0;entryDy=0;dashed=1;" parent="1" source="M6Eo8TPsQsGoYirGPoDh-14" target="iGe3nFgzR7R-XXRQcmDe-23" edge="1">
          <mxGeometry width="50" height="50" relative="1" as="geometry">
            <mxPoint x="510" y="355" as="sourcePoint" />
            <mxPoint x="560" y="370" as="targetPoint" />
            <Array as="points" />
          </mxGeometry>
        </mxCell>
        <mxCell id="iXEXV5dfRXbn2MsEbvl3-3" style="edgeStyle=orthogonalEdgeStyle;rounded=0;orthogonalLoop=1;jettySize=auto;html=1;exitX=0;exitY=0.5;exitDx=0;exitDy=0;" parent="1" source="2eg3K3dL9aRTkdR5wC7p-1" target="iGe3nFgzR7R-XXRQcmDe-5" edge="1">
          <mxGeometry relative="1" as="geometry">
            <mxPoint x="210" y="510" as="targetPoint" />
            <Array as="points">
              <mxPoint x="95" y="720" />
            </Array>
            <mxPoint x="260" y="690" as="sourcePoint" />
          </mxGeometry>
        </mxCell>
        <mxCell id="iXEXV5dfRXbn2MsEbvl3-6" style="edgeStyle=orthogonalEdgeStyle;rounded=0;orthogonalLoop=1;jettySize=auto;html=1;entryX=0.5;entryY=0;entryDx=0;entryDy=0;entryPerimeter=0;" parent="1" source="iXEXV5dfRXbn2MsEbvl3-4" target="iGe3nFgzR7R-XXRQcmDe-5" edge="1">
          <mxGeometry relative="1" as="geometry" />
        </mxCell>
        <mxCell id="iXEXV5dfRXbn2MsEbvl3-4" value="відправити поради щодо танців" style="ellipse;whiteSpace=wrap;html=1;" parent="1" vertex="1">
          <mxGeometry x="284" y="170" width="190" height="40" as="geometry" />
        </mxCell>
        <mxCell id="2eg3K3dL9aRTkdR5wC7p-1" value="відправити поради щодо здоров&#39;я" style="ellipse;whiteSpace=wrap;html=1;" vertex="1" parent="1">
          <mxGeometry x="610" y="700" width="190" height="40" as="geometry" />
        </mxCell>
        <mxCell id="2eg3K3dL9aRTkdR5wC7p-2" value="авторизація/реєстрація" style="ellipse;whiteSpace=wrap;html=1;" vertex="1" parent="1">
          <mxGeometry x="760" y="410" width="220" height="60" as="geometry" />
        </mxCell>
        <mxCell id="2eg3K3dL9aRTkdR5wC7p-7" value="" style="curved=1;endArrow=classic;html=1;rounded=0;exitX=1;exitY=0.5;exitDx=0;exitDy=0;entryX=0.55;entryY=-0.067;entryDx=0;entryDy=0;entryPerimeter=0;dashed=1;" edge="1" parent="1" source="iGe3nFgzR7R-XXRQcmDe-17" target="2eg3K3dL9aRTkdR5wC7p-2">
          <mxGeometry width="50" height="50" relative="1" as="geometry">
            <mxPoint x="540" y="450" as="sourcePoint" />
            <mxPoint x="590" y="400" as="targetPoint" />
            <Array as="points">
              <mxPoint x="590" y="310" />
              <mxPoint x="720" y="350" />
              <mxPoint x="800" y="380" />
            </Array>
          </mxGeometry>
        </mxCell>
        <mxCell id="2eg3K3dL9aRTkdR5wC7p-8" value="include" style="text;html=1;align=center;verticalAlign=middle;resizable=0;points=[];autosize=1;strokeColor=none;fillColor=none;rotation=15;" vertex="1" parent="1">
          <mxGeometry x="625" y="300" width="60" height="30" as="geometry" />
        </mxCell>
        <mxCell id="2eg3K3dL9aRTkdR5wC7p-10" value="" style="curved=1;endArrow=classic;html=1;rounded=0;exitX=1;exitY=0.5;exitDx=0;exitDy=0;entryX=0;entryY=0;entryDx=0;entryDy=0;dashed=1;" edge="1" parent="1" source="iGe3nFgzR7R-XXRQcmDe-6" target="2eg3K3dL9aRTkdR5wC7p-2">
          <mxGeometry width="50" height="50" relative="1" as="geometry">
            <mxPoint x="540" y="450" as="sourcePoint" />
            <mxPoint x="590" y="400" as="targetPoint" />
            <Array as="points">
              <mxPoint x="510" y="410" />
            </Array>
          </mxGeometry>
        </mxCell>
        <mxCell id="2eg3K3dL9aRTkdR5wC7p-11" value="include" style="text;html=1;align=center;verticalAlign=middle;resizable=0;points=[];autosize=1;strokeColor=none;fillColor=none;rotation=15;" vertex="1" parent="1">
          <mxGeometry x="520" y="370" width="60" height="30" as="geometry" />
        </mxCell>
        <mxCell id="2eg3K3dL9aRTkdR5wC7p-15" value="" style="curved=1;endArrow=classic;html=1;rounded=0;entryX=0.5;entryY=1;entryDx=0;entryDy=0;dashed=1;" edge="1" parent="1" target="2eg3K3dL9aRTkdR5wC7p-2">
          <mxGeometry width="50" height="50" relative="1" as="geometry">
            <mxPoint x="370" y="480" as="sourcePoint" />
            <mxPoint x="620" y="490" as="targetPoint" />
            <Array as="points">
              <mxPoint x="620" y="480" />
            </Array>
          </mxGeometry>
        </mxCell>
        <mxCell id="2eg3K3dL9aRTkdR5wC7p-16" value="include" style="text;html=1;align=center;verticalAlign=middle;resizable=0;points=[];autosize=1;strokeColor=none;fillColor=none;rotation=0;" vertex="1" parent="1">
          <mxGeometry x="500" y="450" width="60" height="30" as="geometry" />
        </mxCell>
        <mxCell id="2eg3K3dL9aRTkdR5wC7p-18" value="" style="curved=1;endArrow=classic;html=1;rounded=0;exitX=0.895;exitY=0.075;exitDx=0;exitDy=0;exitPerimeter=0;entryX=0.659;entryY=1;entryDx=0;entryDy=0;entryPerimeter=0;dashed=1;" edge="1" parent="1" source="iGe3nFgzR7R-XXRQcmDe-23" target="2eg3K3dL9aRTkdR5wC7p-2">
          <mxGeometry width="50" height="50" relative="1" as="geometry">
            <mxPoint x="478.74500000000006" y="559" as="sourcePoint" />
            <mxPoint x="755.7699999999999" y="472.5" as="targetPoint" />
            <Array as="points">
              <mxPoint x="690" y="620" />
              <mxPoint x="840" y="550" />
            </Array>
          </mxGeometry>
        </mxCell>
        <mxCell id="2eg3K3dL9aRTkdR5wC7p-19" value="include" style="text;html=1;align=center;verticalAlign=middle;resizable=0;points=[];autosize=1;strokeColor=none;fillColor=none;rotation=0;" vertex="1" parent="1">
          <mxGeometry x="530" y="580" width="60" height="30" as="geometry" />
        </mxCell>
        <mxCell id="2eg3K3dL9aRTkdR5wC7p-20" value="" style="curved=1;endArrow=classic;html=1;rounded=0;entryX=1;entryY=0.5;entryDx=0;entryDy=0;dashed=1;exitX=1;exitY=0.5;exitDx=0;exitDy=0;" edge="1" parent="1" source="iGe3nFgzR7R-XXRQcmDe-8" target="2eg3K3dL9aRTkdR5wC7p-2">
          <mxGeometry width="50" height="50" relative="1" as="geometry">
            <mxPoint x="940" y="510" as="sourcePoint" />
            <mxPoint x="990" y="460" as="targetPoint" />
            <Array as="points">
              <mxPoint x="780" y="610" />
              <mxPoint x="1050" y="530" />
            </Array>
          </mxGeometry>
        </mxCell>
        <mxCell id="2eg3K3dL9aRTkdR5wC7p-21" value="include" style="text;html=1;strokeColor=none;fillColor=none;align=center;verticalAlign=middle;whiteSpace=wrap;rounded=0;rotation=30;" vertex="1" parent="1">
          <mxGeometry x="400" y="630" width="60" height="30" as="geometry" />
        </mxCell>
        <mxCell id="2eg3K3dL9aRTkdR5wC7p-26" value="" style="curved=1;endArrow=classic;html=1;rounded=0;dashed=1;" edge="1" parent="1">
          <mxGeometry width="50" height="50" relative="1" as="geometry">
            <mxPoint x="750" y="530" as="sourcePoint" />
            <mxPoint x="890" y="470" as="targetPoint" />
            <Array as="points">
              <mxPoint x="800" y="520" />
              <mxPoint x="820" y="510" />
            </Array>
          </mxGeometry>
        </mxCell>
        <mxCell id="2eg3K3dL9aRTkdR5wC7p-28" value="include" style="text;html=1;align=center;verticalAlign=middle;resizable=0;points=[];autosize=1;strokeColor=none;fillColor=none;rotation=-15;" vertex="1" parent="1">
          <mxGeometry x="760" y="490" width="60" height="30" as="geometry" />
        </mxCell>
        <mxCell id="2eg3K3dL9aRTkdR5wC7p-29" value="" style="curved=1;endArrow=classic;html=1;rounded=0;exitX=0.789;exitY=0.1;exitDx=0;exitDy=0;exitPerimeter=0;entryX=1;entryY=1;entryDx=0;entryDy=0;dashed=1;" edge="1" parent="1" source="M6Eo8TPsQsGoYirGPoDh-14" target="2eg3K3dL9aRTkdR5wC7p-2">
          <mxGeometry width="50" height="50" relative="1" as="geometry">
            <mxPoint x="880" y="650" as="sourcePoint" />
            <mxPoint x="960" y="480" as="targetPoint" />
            <Array as="points">
              <mxPoint x="990" y="640" />
              <mxPoint x="1000" y="620" />
              <mxPoint x="1000" y="590" />
            </Array>
          </mxGeometry>
        </mxCell>
        <mxCell id="2eg3K3dL9aRTkdR5wC7p-30" value="include" style="text;html=1;align=center;verticalAlign=middle;resizable=0;points=[];autosize=1;strokeColor=none;fillColor=none;rotation=75;" vertex="1" parent="1">
          <mxGeometry x="940" y="480" width="60" height="30" as="geometry" />
        </mxCell>
        <mxCell id="2eg3K3dL9aRTkdR5wC7p-31" value="" style="curved=1;endArrow=classic;html=1;rounded=0;exitX=0.726;exitY=0;exitDx=0;exitDy=0;exitPerimeter=0;entryX=0.764;entryY=1;entryDx=0;entryDy=0;entryPerimeter=0;dashed=1;" edge="1" parent="1" source="2eg3K3dL9aRTkdR5wC7p-1" target="2eg3K3dL9aRTkdR5wC7p-2">
          <mxGeometry width="50" height="50" relative="1" as="geometry">
            <mxPoint x="740" y="500" as="sourcePoint" />
            <mxPoint x="790" y="450" as="targetPoint" />
            <Array as="points">
              <mxPoint x="880" y="560" />
              <mxPoint x="900" y="540" />
              <mxPoint x="920" y="520" />
            </Array>
          </mxGeometry>
        </mxCell>
        <mxCell id="2eg3K3dL9aRTkdR5wC7p-32" value="include" style="text;html=1;align=center;verticalAlign=middle;resizable=0;points=[];autosize=1;strokeColor=none;fillColor=none;rotation=-30;" vertex="1" parent="1">
          <mxGeometry x="720" y="555" width="60" height="30" as="geometry" />
        </mxCell>
        <mxCell id="2eg3K3dL9aRTkdR5wC7p-34" value="include" style="text;html=1;align=center;verticalAlign=middle;resizable=0;points=[];autosize=1;strokeColor=none;fillColor=none;rotation=-45;" vertex="1" parent="1">
          <mxGeometry x="770" y="610" width="60" height="30" as="geometry" />
        </mxCell>
        <mxCell id="2eg3K3dL9aRTkdR5wC7p-35" value="" style="curved=1;endArrow=classic;html=1;rounded=0;exitX=0.905;exitY=0.9;exitDx=0;exitDy=0;entryX=1;entryY=0;entryDx=0;entryDy=0;dashed=1;exitPerimeter=0;" edge="1" parent="1" source="M6Eo8TPsQsGoYirGPoDh-15" target="2eg3K3dL9aRTkdR5wC7p-2">
          <mxGeometry width="50" height="50" relative="1" as="geometry">
            <mxPoint x="500" y="280" as="sourcePoint" />
            <mxPoint x="891" y="416" as="targetPoint" />
            <Array as="points">
              <mxPoint x="880" y="320" />
              <mxPoint x="940" y="370" />
            </Array>
          </mxGeometry>
        </mxCell>
        <mxCell id="2eg3K3dL9aRTkdR5wC7p-36" value="include" style="text;html=1;align=center;verticalAlign=middle;resizable=0;points=[];autosize=1;strokeColor=none;fillColor=none;rotation=15;" vertex="1" parent="1">
          <mxGeometry x="840" y="300" width="60" height="30" as="geometry" />
        </mxCell>
        <mxCell id="2eg3K3dL9aRTkdR5wC7p-38" value="" style="curved=1;endArrow=classic;html=1;rounded=0;exitX=0.5;exitY=1;exitDx=0;exitDy=0;entryX=0.655;entryY=0;entryDx=0;entryDy=0;entryPerimeter=0;dashed=1;" edge="1" parent="1" source="iXEXV5dfRXbn2MsEbvl3-4" target="2eg3K3dL9aRTkdR5wC7p-2">
          <mxGeometry width="50" height="50" relative="1" as="geometry">
            <mxPoint x="590" y="160" as="sourcePoint" />
            <mxPoint x="990" y="390" as="targetPoint" />
            <Array as="points">
              <mxPoint x="630" y="230" />
              <mxPoint x="1030" y="250" />
            </Array>
          </mxGeometry>
        </mxCell>
        <mxCell id="2eg3K3dL9aRTkdR5wC7p-39" value="include" style="text;html=1;align=center;verticalAlign=middle;resizable=0;points=[];autosize=1;strokeColor=none;fillColor=none;rotation=0;" vertex="1" parent="1">
          <mxGeometry x="610" y="200" width="60" height="30" as="geometry" />
        </mxCell>
        <mxCell id="2eg3K3dL9aRTkdR5wC7p-40" value="" style="swimlane;startSize=0;" vertex="1" parent="1">
          <mxGeometry x="150" y="150" width="920" height="640" as="geometry" />
        </mxCell>
      </root>
    </mxGraphModel>
  </diagram>
</mxfile>
